<svg version="1.1" viewBox="0.0 0.0 730.0 452.0" fill="none" stroke="none" stroke-linecap="square" stroke-miterlimit="10" width="730" height="452" xmlns:xlink="http://www.w3.org/1999/xlink" xmlns="http://www.w3.org/2000/svg"><path fill="#ffffff" d="M0 0L730.0 0L730.0 452.0L0 452.0L0 0Z" fill-rule="nonzero"/><path stroke="#333333" stroke-width="1.0" stroke-linecap="butt" d="M49.5 377.5L707.5 377.5" fill-rule="nonzero"/><path stroke="#cccccc" stroke-width="1.0" stroke-linecap="butt" d="M49.5 274.5L707.5 274.5" fill-rule="nonzero"/><path stroke="#cccccc" stroke-width="1.0" stroke-linecap="butt" d="M49.5 171.5L707.5 171.5" fill-rule="nonzero"/><path stroke="#cccccc" stroke-width="1.0" stroke-linecap="butt" d="M49.5 68.5L707.5 68.5" fill-rule="nonzero"/><clipPath id="id_0"><path d="M49.6 68.666664L707.4 68.666664L707.4 377.4L49.6 377.4L49.6 68.666664Z" clip-rule="nonzero"/></clipPath><path stroke="#000000" stroke-width="8.0" stroke-linecap="butt" stroke-opacity="0.0" clip-path="url(#id_0)" d="M111.0 377.0L54.0 377.0L54.0 338.0C54.0 336.89542 54.89543 336.0 56.0 336.0L109.0 336.0C110.10457 336.0 111.0 336.89542 111.0 338.0Z" fill-rule="nonzero"/><path fill="#4285f4" clip-path="url(#id_0)" d="M111.0 377.0L54.0 377.0L54.0 338.0C54.0 336.89542 54.89543 336.0 56.0 336.0L109.0 336.0C110.10457 336.0 111.0 336.89542 111.0 338.0Z" fill-rule="nonzero"/><path stroke="#000000" stroke-width="8.0" stroke-linecap="butt" stroke-opacity="0.0" clip-path="url(#id_0)" d="M177.0 377.0L120.0 377.0L120.0 81.0C120.0 79.89543 120.89543 79.0 122.0 79.0L175.0 79.0C176.10457 79.0 177.0 79.89543 177.0 81.0Z" fill-rule="nonzero"/><path fill="#4285f4" clip-path="url(#id_0)" d="M177.0 377.0L120.0 377.0L120.0 81.0C120.0 79.89543 120.89543 79.0 122.0 79.0L175.0 79.0C176.10457 79.0 177.0 79.89543 177.0 81.0Z" fill-rule="nonzero"/><path stroke="#000000" stroke-width="8.0" stroke-linecap="butt" stroke-opacity="0.0" clip-path="url(#id_0)" d="M243.0 377.0L186.0 377.0L186.0 91.0C186.0 89.89543 186.89543 89.0 188.0 89.0L241.0 89.0C242.10457 89.0 243.0 89.89543 243.0 91.0Z" fill-rule="nonzero"/><path fill="#4285f4" clip-path="url(#id_0)" d="M243.0 377.0L186.0 377.0L186.0 91.0C186.0 89.89543 186.89543 89.0 188.0 89.0L241.0 89.0C242.10457 89.0 243.0 89.89543 243.0 91.0Z" fill-rule="nonzero"/><path stroke="#000000" stroke-width="8.0" stroke-linecap="butt" stroke-opacity="0.0" clip-path="url(#id_0)" d="M309.0 377.0L252.0 377.0L252.0 174.0C252.0 172.89543 252.89543 172.0 254.0 172.0L307.0 172.0C308.10458 172.0 309.0 172.89543 309.0 174.0Z" fill-rule="nonzero"/><path fill="#4285f4" clip-path="url(#id_0)" d="M309.0 377.0L252.0 377.0L252.0 174.0C252.0 172.89543 252.89543 172.0 254.0 172.0L307.0 172.0C308.10458 172.0 309.0 172.89543 309.0 174.0Z" fill-rule="nonzero"/><path stroke="#000000" stroke-width="8.0" stroke-linecap="butt" stroke-opacity="0.0" clip-path="url(#id_0)" d="M375.0 377.0L318.0 377.0L318.0 359.0C318.0 357.89542 318.89542 357.0 320.0 357.0L373.0 357.0C374.10458 357.0 375.0 357.89542 375.0 359.0Z" fill-rule="nonzero"/><path fill="#4285f4" clip-path="url(#id_0)" d="M375.0 377.0L318.0 377.0L318.0 359.0C318.0 357.89542 318.89542 357.0 320.0 357.0L373.0 357.0C374.10458 357.0 375.0 357.89542 375.0 359.0Z" fill-rule="nonzero"/><path stroke="#000000" stroke-width="8.0" stroke-linecap="butt" stroke-opacity="0.0" clip-path="url(#id_0)" d="M440.0 377.0L383.0 377.0L383.0 369.0C383.0 367.89542 383.89542 367.0 385.0 367.0L438.0 367.0C439.10458 367.0 440.0 367.89542 440.0 369.0Z" fill-rule="nonzero"/><path fill="#4285f4" clip-path="url(#id_0)" d="M440.0 377.0L383.0 377.0L383.0 369.0C383.0 367.89542 383.89542 367.0 385.0 367.0L438.0 367.0C439.10458 367.0 440.0 367.89542 440.0 369.0Z" fill-rule="nonzero"/><path stroke="#000000" stroke-width="8.0" stroke-linecap="butt" stroke-opacity="0.0" clip-path="url(#id_0)" d="M506.0 377.0L449.0 377.0L449.0 276.0C449.0 274.89542 449.89542 274.0 451.0 274.0L504.0 274.0C505.10458 274.0 506.0 274.89542 506.0 276.0Z" fill-rule="nonzero"/><path fill="#4285f4" clip-path="url(#id_0)" d="M506.0 377.0L449.0 377.0L449.0 276.0C449.0 274.89542 449.89542 274.0 451.0 274.0L504.0 274.0C505.10458 274.0 506.0 274.89542 506.0 276.0Z" fill-rule="nonzero"/><path stroke="#000000" stroke-width="8.0" stroke-linecap="butt" stroke-opacity="0.0" clip-path="url(#id_0)" d="M572.0 377.0L515.0 377.0L515.0 225.0C515.0 223.89543 515.89545 223.0 517.0 223.0L570.0 223.0C571.10455 223.0 572.0 223.89543 572.0 225.0Z" fill-rule="nonzero"/><path fill="#4285f4" clip-path="url(#id_0)" d="M572.0 377.0L515.0 377.0L515.0 225.0C515.0 223.89543 515.89545 223.0 517.0 223.0L570.0 223.0C571.10455 223.0 572.0 223.89543 572.0 225.0Z" fill-rule="nonzero"/><path stroke="#000000" stroke-width="8.0" stroke-linecap="butt" stroke-opacity="0.0" clip-path="url(#id_0)" d="M638.0 377.0L581.0 377.0L581.0 359.0C581.0 357.89542 581.89545 357.0 583.0 357.0L636.0 357.0C637.10455 357.0 638.0 357.89542 638.0 359.0Z" fill-rule="nonzero"/><path fill="#4285f4" clip-path="url(#id_0)" d="M638.0 377.0L581.0 377.0L581.0 359.0C581.0 357.89542 581.89545 357.0 583.0 357.0L636.0 357.0C637.10455 357.0 638.0 357.89542 638.0 359.0Z" fill-rule="nonzero"/><path stroke="#000000" stroke-width="8.0" stroke-linecap="butt" stroke-opacity="0.0" clip-path="url(#id_0)" d="M704.0 377.0L647.0 377.0L647.0 359.0C647.0 357.89542 647.89545 357.0 649.0 357.0L702.0 357.0C703.10455 357.0 704.0 357.89542 704.0 359.0Z" fill-rule="nonzero"/><path fill="#4285f4" clip-path="url(#id_0)" d="M704.0 377.0L647.0 377.0L647.0 359.0C647.0 357.89542 647.89545 357.0 649.0 357.0L702.0 357.0C703.10455 357.0 704.0 357.89542 704.0 359.0Z" fill-rule="nonzero"/><path fill="#000000" d="M331.10938 426.4L331.10938 418.82187L328.28125 418.82187L328.28125 417.80624L335.09375 417.80624L335.09375 418.82187L332.25 418.82187L332.25 426.4L331.10938 426.4ZM335.79688 419.025L335.79688 417.80624L336.85938 417.80624L336.85938 419.025L335.79688 419.025ZM335.79688 426.4L335.79688 420.18124L336.85938 420.18124L336.85938 426.4L335.79688 426.4ZM338.79688 426.4L338.79688 420.18124L339.73438 420.18124L339.73438 421.05624Q340.03125 420.5875 340.51562 420.32187Q341.0 420.04062 341.625 420.04062Q342.3125 420.04062 342.75 420.32187Q343.20312 420.60312 343.375 421.11874Q344.125 420.04062 345.29688 420.04062Q346.23438 420.04062 346.71875 420.55624Q347.21875 421.05624 347.21875 422.13437L347.21875 426.4L346.17188 426.4L346.17188 422.47812Q346.17188 421.85312 346.0625 421.57187Q345.96875 421.29062 345.70312 421.11874Q345.4375 420.94687 345.0625 420.94687Q344.40625 420.94687 343.96875 421.38437Q343.54688 421.82187 343.54688 422.79062L343.54688 426.4L342.48438 426.4L342.48438 422.35312Q342.48438 421.65 342.21875 421.30624Q341.96875 420.94687 341.39062 420.94687Q340.9375 420.94687 340.5625 421.18124Q340.1875 421.41562 340.01562 421.86874Q339.84375 422.32187 339.84375 423.16562L339.84375 426.4L338.79688 426.4ZM354.04688 424.4L355.14062 424.525Q354.89062 425.47812 354.1875 426.00937Q353.48438 426.54062 352.40625 426.54062Q351.04688 426.54062 350.23438 425.69687Q349.4375 424.85312 349.4375 423.3375Q349.4375 421.775 350.25 420.91562Q351.0625 420.04062 352.34375 420.04062Q353.59375 420.04062 354.375 420.88437Q355.17188 421.72812 355.17188 423.275Q355.17188 423.36874 355.17188 423.55624L350.53125 423.55624Q350.59375 424.5875 351.10938 425.13437Q351.625 425.66562 352.40625 425.66562Q352.98438 425.66562 353.39062 425.36874Q353.8125 425.05624 354.04688 424.4ZM350.59375 422.69687L354.0625 422.69687Q354.0 421.9 353.67188 421.50937Q353.15625 420.9 352.35938 420.9Q351.625 420.9 351.125 421.38437Q350.64062 421.86874 350.59375 422.69687ZM359.8125 428.79062L359.8125 417.80624L362.14062 417.80624L362.14062 418.68124L360.875 418.68124L360.875 427.91562L362.14062 427.91562L362.14062 428.79062L359.8125 428.79062ZM362.79688 426.4L362.79688 420.18124L363.73438 420.18124L363.73438 421.05624Q364.03125 420.5875 364.51562 420.32187Q365.0 420.04062 365.625 420.04062Q366.3125 420.04062 366.75 420.32187Q367.20312 420.60312 367.375 421.11874Q368.125 420.04062 369.29688 420.04062Q370.23438 420.04062 370.71875 420.55624Q371.21875 421.05624 371.21875 422.13437L371.21875 426.4L370.17188 426.4L370.17188 422.47812Q370.17188 421.85312 370.0625 421.57187Q369.96875 421.29062 369.70312 421.11874Q369.4375 420.94687 369.0625 420.94687Q368.40625 420.94687 367.96875 421.38437Q367.54688 421.82187 367.54688 422.79062L367.54688 426.4L366.48438 426.4L366.48438 422.35312Q366.48438 421.65 366.21875 421.30624Q365.96875 420.94687 365.39062 420.94687Q364.9375 420.94687 364.5625 421.18124Q364.1875 421.41562 364.01562 421.86874Q363.84375 422.32187 363.84375 423.16562L363.84375 426.4L362.79688 426.4ZM373.79688 419.025L373.79688 417.80624L374.85938 417.80624L374.85938 419.025L373.79688 419.025ZM373.79688 426.4L373.79688 420.18124L374.85938 420.18124L374.85938 426.4L373.79688 426.4ZM376.76562 426.4L376.76562 417.80624L377.82812 417.80624L377.82812 426.4L376.76562 426.4ZM379.76562 426.4L379.76562 417.80624L380.82812 417.80624L380.82812 426.4L379.76562 426.4ZM382.79688 419.025L382.79688 417.80624L383.85938 417.80624L383.85938 419.025L382.79688 419.025ZM382.79688 426.4L382.79688 420.18124L383.85938 420.18124L383.85938 426.4L382.79688 426.4ZM385.375 424.54062L386.40625 424.38437Q386.5 425.00937 386.89062 425.3375Q387.29688 425.66562 388.03125 425.66562Q388.75 425.66562 389.09375 425.38437Q389.45312 425.0875 389.45312 424.68124Q389.45312 424.32187 389.14062 424.11874Q388.92188 423.97812 388.0625 423.75937Q386.90625 423.4625 386.45312 423.25937Q386.01562 423.04062 385.78125 422.66562Q385.54688 422.29062 385.54688 421.82187Q385.54688 421.41562 385.73438 421.05624Q385.92188 420.69687 386.25 420.4625Q386.5 420.29062 386.92188 420.16562Q387.34375 420.04062 387.84375 420.04062Q388.5625 420.04062 389.10938 420.25937Q389.67188 420.4625 389.9375 420.82187Q390.20312 421.18124 390.29688 421.775L389.26562 421.91562Q389.20312 421.44687 388.85938 421.18124Q388.53125 420.9 387.90625 420.9Q387.1875 420.9 386.875 421.15Q386.5625 421.38437 386.5625 421.7125Q386.5625 421.91562 386.6875 422.07187Q386.82812 422.24374 387.09375 422.35312Q387.25 422.41562 388.03125 422.61874Q389.15625 422.93124 389.59375 423.11874Q390.03125 423.30624 390.28125 423.66562Q390.53125 424.025 390.53125 424.57187Q390.53125 425.10312 390.21875 425.57187Q389.92188 426.025 389.34375 426.29062Q388.76562 426.54062 388.03125 426.54062Q386.8125 426.54062 386.17188 426.04062Q385.54688 425.525 385.375 424.54062ZM397.04688 424.4L398.14062 424.525Q397.89062 425.47812 397.1875 426.00937Q396.48438 426.54062 395.40625 426.54062Q394.04688 426.54062 393.23438 425.69687Q392.4375 424.85312 392.4375 423.3375Q392.4375 421.775 393.25 420.91562Q394.0625 420.04062 395.34375 420.04062Q396.59375 420.04062 397.375 420.88437Q398.17188 421.72812 398.17188 423.275Q398.17188 423.36874 398.17188 423.55624L393.53125 423.55624Q393.59375 424.5875 394.10938 425.13437Q394.625 425.66562 395.40625 425.66562Q395.98438 425.66562 396.39062 425.36874Q396.8125 425.05624 397.04688 424.4ZM393.59375 422.69687L397.0625 422.69687Q397.0 421.9 396.67188 421.50937Q396.15625 420.9 395.35938 420.9Q394.625 420.9 394.125 421.38437Q393.64062 421.86874 393.59375 422.69687ZM403.85938 424.11874L404.89062 424.25937Q404.71875 425.32187 404.01562 425.93124Q403.3125 426.54062 402.29688 426.54062Q401.01562 426.54062 400.23438 425.7125Q399.46875 424.86874 399.46875 423.30624Q399.46875 422.30624 399.79688 421.55624Q400.14062 420.79062 400.8125 420.41562Q401.5 420.04062 402.3125 420.04062Q403.3125 420.04062 403.95312 420.55624Q404.60938 421.05624 404.79688 422.00937L403.76562 422.16562Q403.625 421.54062 403.25 421.22812Q402.875 420.9 402.34375 420.9Q401.54688 420.9 401.04688 421.47812Q400.54688 422.04062 400.54688 423.275Q400.54688 424.54062 401.03125 425.10312Q401.51562 425.66562 402.28125 425.66562Q402.90625 425.66562 403.3125 425.29062Q403.73438 424.91562 403.85938 424.11874ZM405.40625 423.29062Q405.40625 421.55624 406.35938 420.72812Q407.15625 420.04062 408.3125 420.04062Q409.59375 420.04062 410.40625 420.88437Q411.23438 421.7125 411.23438 423.19687Q411.23438 424.4 410.875 425.0875Q410.51562 425.775 409.8125 426.16562Q409.125 426.54062 408.3125 426.54062Q407.01562 426.54062 406.20312 425.7125Q405.40625 424.86874 405.40625 423.29062ZM406.48438 423.29062Q406.48438 424.47812 407.0 425.07187Q407.53125 425.66562 408.3125 425.66562Q409.10938 425.66562 409.625 425.07187Q410.14062 424.47812 410.14062 423.25937Q410.14062 422.10312 409.60938 421.50937Q409.09375 420.91562 408.3125 420.91562Q407.53125 420.91562 407.0 421.50937Q406.48438 422.0875 406.48438 423.29062ZM412.79688 426.4L412.79688 420.18124L413.73438 420.18124L413.73438 421.05624Q414.42188 420.04062 415.71875 420.04062Q416.28125 420.04062 416.75 420.24374Q417.23438 420.44687 417.46875 420.775Q417.70312 421.10312 417.79688 421.54062Q417.84375 421.8375 417.84375 422.57187L417.84375 426.4L416.79688 426.4L416.79688 422.61874Q416.79688 421.9625 416.67188 421.65Q416.54688 421.3375 416.23438 421.15Q415.92188 420.94687 415.5 420.94687Q414.82812 420.94687 414.32812 421.38437Q413.84375 421.80624 413.84375 422.99374L413.84375 426.4L412.79688 426.4ZM423.82812 426.4L423.82812 425.61874Q423.23438 426.54062 422.09375 426.54062Q421.34375 426.54062 420.71875 426.13437Q420.09375 425.7125 419.75 424.97812Q419.40625 424.24374 419.40625 423.29062Q419.40625 422.36874 419.71875 421.60312Q420.03125 420.8375 420.65625 420.44687Q421.28125 420.04062 422.04688 420.04062Q422.60938 420.04062 423.04688 420.275Q423.48438 420.50937 423.76562 420.88437L423.76562 417.80624L424.8125 417.80624L424.8125 426.4L423.82812 426.4ZM420.5 423.29062Q420.5 424.49374 421.0 425.0875Q421.5 425.66562 422.1875 425.66562Q422.875 425.66562 423.35938 425.10312Q423.84375 424.54062 423.84375 423.38437Q423.84375 422.10312 423.34375 421.50937Q422.85938 420.91562 422.14062 420.91562Q421.4375 420.91562 420.96875 421.49374Q420.5 422.05624 420.5 423.29062ZM428.5625 428.79062L426.23438 428.79062L426.23438 427.91562L427.5 427.91562L427.5 418.68124L426.23438 418.68124L426.23438 417.80624L428.5625 417.80624L428.5625 428.79062Z" fill-rule="nonzero"/><path fill="#000000" d="M37.1 377.16562Q37.1 375.63437 37.4125 374.7125Q37.725 373.775 38.334373 373.275Q38.959373 372.775 39.896873 372.775Q40.584373 372.775 41.1 373.05624Q41.63125 373.3375 41.975 373.86874Q42.31875 374.38437 42.50625 375.13437Q42.69375 375.88437 42.69375 377.16562Q42.69375 378.68124 42.38125 379.60312Q42.084373 380.525 41.459373 381.04062Q40.85 381.54062 39.896873 381.54062Q38.6625 381.54062 37.94375 380.65Q37.1 379.5875 37.1 377.16562ZM38.178123 377.16562Q38.178123 379.275 38.678123 379.97812Q39.178123 380.68124 39.896873 380.68124Q40.63125 380.68124 41.115623 379.97812Q41.615623 379.275 41.615623 377.16562Q41.615623 375.04062 41.115623 374.35312Q40.63125 373.65 39.88125 373.65Q39.1625 373.65 38.725 374.25937Q38.178123 375.04062 38.178123 377.16562Z" fill-rule="nonzero"/><path fill="#000000" d="M34.06875 278.4889L33.021873 278.4889L33.021873 271.77014Q32.63125 272.12952 32.00625 272.50452Q31.396875 272.8639 30.9125 273.03577L30.9125 272.02014Q31.7875 271.59827 32.44375 271.02014Q33.115623 270.4264 33.396873 269.8639L34.06875 269.8639L34.06875 278.4889ZM37.1 274.25452Q37.1 272.72327 37.4125 271.8014Q37.725 270.8639 38.334373 270.3639Q38.959373 269.8639 39.896873 269.8639Q40.584373 269.8639 41.1 270.14514Q41.63125 270.4264 41.975 270.95764Q42.31875 271.47327 42.50625 272.22327Q42.69375 272.97327 42.69375 274.25452Q42.69375 275.77014 42.38125 276.69202Q42.084373 277.6139 41.459373 278.12952Q40.85 278.62952 39.896873 278.62952Q38.6625 278.62952 37.94375 277.7389Q37.1 276.6764 37.1 274.25452ZM38.178123 274.25452Q38.178123 276.3639 38.678123 277.06702Q39.178123 277.77014 39.896873 277.77014Q40.63125 277.77014 41.115623 277.06702Q41.615623 276.3639 41.615623 274.25452Q41.615623 272.12952 41.115623 271.44202Q40.63125 270.7389 39.88125 270.7389Q39.1625 270.7389 38.725 271.34827Q38.178123 272.12952 38.178123 274.25452Z" fill-rule="nonzero"/><path fill="#000000" d="M35.646873 174.56215L35.646873 175.57777L29.959375 175.57777Q29.959375 175.20277 30.084375 174.8434Q30.303125 174.26527 30.771875 173.70277Q31.25625 173.14027 32.1625 172.4059Q33.56875 171.24965 34.053123 170.57777Q34.553123 169.9059 34.553123 169.31215Q34.553123 168.68715 34.1 168.26527Q33.646873 167.82777 32.928123 167.82777Q32.1625 167.82777 31.709375 168.2809Q31.25625 168.73402 31.240625 169.54652L30.1625 169.43715Q30.271875 168.2184 30.990625 167.5934Q31.725 166.95277 32.959373 166.95277Q34.19375 166.95277 34.9125 167.64027Q35.63125 168.32777 35.63125 169.3434Q35.63125 169.85902 35.4125 170.35902Q35.209373 170.8434 34.709373 171.4059Q34.225 171.95277 33.1 172.9059Q32.146873 173.70277 31.865625 173.99965Q31.6 174.2809 31.428125 174.56215L35.646873 174.56215ZM37.1 171.3434Q37.1 169.81215 37.4125 168.89027Q37.725 167.95277 38.334373 167.45277Q38.959373 166.95277 39.896873 166.95277Q40.584373 166.95277 41.1 167.23402Q41.63125 167.51527 41.975 168.04652Q42.31875 168.56215 42.50625 169.31215Q42.69375 170.06215 42.69375 171.3434Q42.69375 172.85902 42.38125 173.7809Q42.084373 174.70277 41.459373 175.2184Q40.85 175.7184 39.896873 175.7184Q38.6625 175.7184 37.94375 174.82777Q37.1 173.76527 37.1 171.3434ZM38.178123 171.3434Q38.178123 173.45277 38.678123 174.1559Q39.178123 174.85902 39.896873 174.85902Q40.63125 174.85902 41.115623 174.1559Q41.615623 173.45277 41.615623 171.3434Q41.615623 169.2184 41.115623 168.5309Q40.63125 167.82777 39.88125 167.82777Q39.1625 167.82777 38.725 168.43715Q38.178123 169.2184 38.178123 171.3434Z" fill-rule="nonzero"/><path fill="#000000" d="M30.1 70.40104L31.1625 70.260414Q31.334375 71.15104 31.771875 71.55729Q32.209373 71.947914 32.834373 71.947914Q33.584373 71.947914 34.1 71.43229Q34.615623 70.916664 34.615623 70.15104Q34.615623 69.43229 34.13125 68.96354Q33.6625 68.479164 32.928123 68.479164Q32.63125 68.479164 32.178123 68.604164L32.303123 67.666664Q32.4125 67.68229 32.475 67.68229Q33.146873 67.68229 33.678123 67.33854Q34.225 66.979164 34.225 66.24479Q34.225 65.666664 33.834373 65.291664Q33.44375 64.90104 32.81875 64.90104Q32.209373 64.90104 31.7875 65.291664Q31.38125 65.68229 31.271875 66.447914L30.209375 66.260414Q30.396875 65.21354 31.084375 64.635414Q31.771875 64.041664 32.7875 64.041664Q33.490623 64.041664 34.084373 64.354164Q34.678123 64.65104 34.990623 65.166664Q35.303123 65.68229 35.303123 66.27604Q35.303123 66.822914 35.00625 67.291664Q34.709373 67.74479 34.13125 68.010414Q34.88125 68.18229 35.303123 68.74479Q35.725 69.291664 35.725 70.135414Q35.725 71.260414 34.896873 72.041664Q34.084373 72.822914 32.834373 72.822914Q31.709375 72.822914 30.959375 72.15104Q30.209375 71.46354 30.1 70.40104ZM37.1 68.43229Q37.1 66.90104 37.4125 65.979164Q37.725 65.041664 38.334373 64.541664Q38.959373 64.041664 39.896873 64.041664Q40.584373 64.041664 41.1 64.322914Q41.63125 64.604164 41.975 65.135414Q42.31875 65.65104 42.50625 66.40104Q42.69375 67.15104 42.69375 68.43229Q42.69375 69.947914 42.38125 70.86979Q42.084373 71.791664 41.459373 72.30729Q40.85 72.80729 39.896873 72.80729Q38.6625 72.80729 37.94375 71.916664Q37.1 70.854164 37.1 68.43229ZM38.178123 68.43229Q38.178123 70.541664 38.678123 71.24479Q39.178123 71.947914 39.896873 71.947914Q40.63125 71.947914 41.115623 71.24479Q41.615623 70.541664 41.615623 68.43229Q41.615623 66.30729 41.115623 65.61979Q40.63125 64.916664 39.88125 64.916664Q39.1625 64.916664 38.725 65.52604Q38.178123 66.30729 38.178123 68.43229Z" fill-rule="nonzero"/><path fill="#000000" d="M38.1 390.16562Q38.1 388.63437 38.4125 387.7125Q38.725 386.775 39.334373 386.275Q39.959373 385.775 40.896873 385.775Q41.584373 385.775 42.1 386.05624Q42.63125 386.3375 42.975 386.86874Q43.31875 387.38437 43.50625 388.13437Q43.69375 388.88437 43.69375 390.16562Q43.69375 391.68124 43.38125 392.60312Q43.084373 393.525 42.459373 394.04062Q41.85 394.54062 40.896873 394.54062Q39.6625 394.54062 38.94375 393.65Q38.1 392.5875 38.1 390.16562ZM39.178123 390.16562Q39.178123 392.275 39.678123 392.97812Q40.178123 393.68124 40.896873 393.68124Q41.63125 393.68124 42.115623 392.97812Q42.615623 392.275 42.615623 390.16562Q42.615623 388.04062 42.115623 387.35312Q41.63125 386.65 40.88125 386.65Q40.1625 386.65 39.725 387.25937Q39.178123 388.04062 39.178123 390.16562ZM45.69375 394.4L45.69375 393.19687L46.896873 393.19687L46.896873 394.4L45.69375 394.4ZM48.1 390.16562Q48.1 388.63437 48.4125 387.7125Q48.725 386.775 49.334373 386.275Q49.959373 385.775 50.896873 385.775Q51.584373 385.775 52.1 386.05624Q52.63125 386.3375 52.975 386.86874Q53.31875 387.38437 53.50625 388.13437Q53.69375 388.88437 53.69375 390.16562Q53.69375 391.68124 53.38125 392.60312Q53.084373 393.525 52.459373 394.04062Q51.85 394.54062 50.896873 394.54062Q49.6625 394.54062 48.94375 393.65Q48.1 392.5875 48.1 390.16562ZM49.178123 390.16562Q49.178123 392.275 49.678123 392.97812Q50.178123 393.68124 50.896873 393.68124Q51.63125 393.68124 52.115623 392.97812Q52.615623 392.275 52.615623 390.16562Q52.615623 388.04062 52.115623 387.35312Q51.63125 386.65 50.88125 386.65Q50.1625 386.65 49.725 387.25937Q49.178123 388.04062 49.178123 390.16562ZM55.1 390.16562Q55.1 388.63437 55.4125 387.7125Q55.725 386.775 56.334373 386.275Q56.959373 385.775 57.896873 385.775Q58.584373 385.775 59.1 386.05624Q59.63125 386.3375 59.975 386.86874Q60.31875 387.38437 60.50625 388.13437Q60.69375 388.88437 60.69375 390.16562Q60.69375 391.68124 60.38125 392.60312Q60.084373 393.525 59.459373 394.04062Q58.85 394.54062 57.896873 394.54062Q56.6625 394.54062 55.94375 393.65Q55.1 392.5875 55.1 390.16562ZM56.178123 390.16562Q56.178123 392.275 56.678123 392.97812Q57.178123 393.68124 57.896873 393.68124Q58.63125 393.68124 59.115623 392.97812Q59.615623 392.275 59.615623 390.16562Q59.615623 388.04062 59.115623 387.35312Q58.63125 386.65 57.88125 386.65Q57.1625 386.65 56.725 387.25937Q56.178123 388.04062 56.178123 390.16562Z" fill-rule="nonzero"/><path fill="#000000" d="M103.88 390.16562Q103.88 388.63437 104.1925 387.7125Q104.505 386.775 105.11437 386.275Q105.73937 385.775 106.67687 385.775Q107.36437 385.775 107.88 386.05624Q108.41125 386.3375 108.755 386.86874Q109.09875 387.38437 109.28625 388.13437Q109.47375 388.88437 109.47375 390.16562Q109.47375 391.68124 109.16125 392.60312Q108.86437 393.525 108.23937 394.04062Q107.63 394.54062 106.67687 394.54062Q105.4425 394.54062 104.72375 393.65Q103.88 392.5875 103.88 390.16562ZM104.95812 390.16562Q104.95812 392.275 105.45812 392.97812Q105.95812 393.68124 106.67687 393.68124Q107.41125 393.68124 107.89562 392.97812Q108.39562 392.275 108.39562 390.16562Q108.39562 388.04062 107.89562 387.35312Q107.41125 386.65 106.66125 386.65Q105.9425 386.65 105.505 387.25937Q104.95812 388.04062 104.95812 390.16562ZM111.47375 394.4L111.47375 393.19687L112.67687 393.19687L112.67687 394.4L111.47375 394.4ZM119.42687 393.38437L119.42687 394.4L113.73937 394.4Q113.73937 394.025 113.86437 393.66562Q114.08312 393.0875 114.55187 392.525Q115.03625 391.9625 115.9425 391.22812Q117.34875 390.07187 117.83312 389.4Q118.33312 388.72812 118.33312 388.13437Q118.33312 387.50937 117.88 387.0875Q117.42687 386.65 116.70812 386.65Q115.9425 386.65 115.48937 387.10312Q115.03625 387.55624 115.02062 388.36874L113.9425 388.25937Q114.05187 387.04062 114.77062 386.41562Q115.505 385.775 116.73937 385.775Q117.97375 385.775 118.6925 386.4625Q119.41125 387.15 119.41125 388.16562Q119.41125 388.68124 119.1925 389.18124Q118.98937 389.66562 118.48937 390.22812Q118.005 390.775 116.88 391.72812Q115.92687 392.525 115.64562 392.82187Q115.38 393.10312 115.20812 393.38437L119.42687 393.38437ZM120.88 392.15L121.98937 392.05624Q122.11437 392.86874 122.55187 393.275Q123.005 393.68124 123.64562 393.68124Q124.39562 393.68124 124.92687 393.10312Q125.45812 392.525 125.45812 391.5875Q125.45812 390.68124 124.9425 390.16562Q124.4425 389.63437 123.61437 389.63437Q123.11437 389.63437 122.6925 389.86874Q122.28625 390.10312 122.05187 390.4625L121.0675 390.3375L121.89562 385.93124L126.17687 385.93124L126.17687 386.93124L122.73937 386.93124L122.28625 389.24374Q123.05187 388.69687 123.89562 388.69687Q125.02062 388.69687 125.78625 389.47812Q126.5675 390.25937 126.5675 391.49374Q126.5675 392.65 125.89562 393.50937Q125.0675 394.54062 123.64562 394.54062Q122.47375 394.54062 121.72375 393.88437Q120.98937 393.22812 120.88 392.15Z" fill-rule="nonzero"/><path fill="#000000" d="M169.66 390.16562Q169.66 388.63437 169.9725 387.7125Q170.285 386.775 170.89438 386.275Q171.51938 385.775 172.45688 385.775Q173.14438 385.775 173.66 386.05624Q174.19125 386.3375 174.535 386.86874Q174.87875 387.38437 175.06625 388.13437Q175.25375 388.88437 175.25375 390.16562Q175.25375 391.68124 174.94125 392.60312Q174.64438 393.525 174.01938 394.04062Q173.41 394.54062 172.45688 394.54062Q171.2225 394.54062 170.50375 393.65Q169.66 392.5875 169.66 390.16562ZM170.73813 390.16562Q170.73813 392.275 171.23813 392.97812Q171.73813 393.68124 172.45688 393.68124Q173.19125 393.68124 173.67563 392.97812Q174.17563 392.275 174.17563 390.16562Q174.17563 388.04062 173.67563 387.35312Q173.19125 386.65 172.44125 386.65Q171.7225 386.65 171.285 387.25937Q170.73813 388.04062 170.73813 390.16562ZM177.25375 394.4L177.25375 393.19687L178.45688 393.19687L178.45688 394.4L177.25375 394.4ZM179.66 392.15L180.76938 392.05624Q180.89438 392.86874 181.33188 393.275Q181.785 393.68124 182.42563 393.68124Q183.17563 393.68124 183.70688 393.10312Q184.23813 392.525 184.23813 391.5875Q184.23813 390.68124 183.7225 390.16562Q183.2225 389.63437 182.39438 389.63437Q181.89438 389.63437 181.4725 389.86874Q181.06625 390.10312 180.83188 390.4625L179.8475 390.3375L180.67563 385.93124L184.95688 385.93124L184.95688 386.93124L181.51938 386.93124L181.06625 389.24374Q181.83188 388.69687 182.67563 388.69687Q183.80063 388.69687 184.56625 389.47812Q185.3475 390.25937 185.3475 391.49374Q185.3475 392.65 184.67563 393.50937Q183.8475 394.54062 182.42563 394.54062Q181.25375 394.54062 180.50375 393.88437Q179.76938 393.22812 179.66 392.15ZM186.66 390.16562Q186.66 388.63437 186.9725 387.7125Q187.285 386.775 187.89438 386.275Q188.51938 385.775 189.45688 385.775Q190.14438 385.775 190.66 386.05624Q191.19125 386.3375 191.535 386.86874Q191.87875 387.38437 192.06625 388.13437Q192.25375 388.88437 192.25375 390.16562Q192.25375 391.68124 191.94125 392.60312Q191.64438 393.525 191.01938 394.04062Q190.41 394.54062 189.45688 394.54062Q188.2225 394.54062 187.50375 393.65Q186.66 392.5875 186.66 390.16562ZM187.73813 390.16562Q187.73813 392.275 188.23813 392.97812Q188.73813 393.68124 189.45688 393.68124Q190.19125 393.68124 190.67563 392.97812Q191.17563 392.275 191.17563 390.16562Q191.17563 388.04062 190.67563 387.35312Q190.19125 386.65 189.44125 386.65Q188.7225 386.65 188.285 387.25937Q187.73813 388.04062 187.73813 390.16562Z" fill-rule="nonzero"/><path fill="#000000" d="M235.44 390.16562Q235.44 388.63437 235.7525 387.7125Q236.065 386.775 236.67438 386.275Q237.29938 385.775 238.23688 385.775Q238.92438 385.775 239.44 386.05624Q239.97125 386.3375 240.315 386.86874Q240.65875 387.38437 240.84625 388.13437Q241.03375 388.88437 241.03375 390.16562Q241.03375 391.68124 240.72125 392.60312Q240.42438 393.525 239.79938 394.04062Q239.19 394.54062 238.23688 394.54062Q237.0025 394.54062 236.28375 393.65Q235.44 392.5875 235.44 390.16562ZM236.51813 390.16562Q236.51813 392.275 237.01813 392.97812Q237.51813 393.68124 238.23688 393.68124Q238.97125 393.68124 239.45563 392.97812Q239.95563 392.275 239.95563 390.16562Q239.95563 388.04062 239.45563 387.35312Q238.97125 386.65 238.22125 386.65Q237.5025 386.65 237.065 387.25937Q236.51813 388.04062 236.51813 390.16562ZM243.03375 394.4L243.03375 393.19687L244.23688 393.19687L244.23688 394.4L243.03375 394.4ZM245.5025 386.93124L245.5025 385.91562L251.065 385.91562L251.065 386.74374Q250.2525 387.61874 249.44 389.07187Q248.64313 390.50937 248.20563 392.04062Q247.8775 393.11874 247.79938 394.4L246.70563 394.4Q246.72125 393.38437 247.09625 391.94687Q247.48688 390.50937 248.19 389.18124Q248.90875 387.85312 249.72125 386.93124L245.5025 386.93124ZM252.44 392.15L253.54938 392.05624Q253.67438 392.86874 254.11188 393.275Q254.565 393.68124 255.20563 393.68124Q255.95563 393.68124 256.48688 393.10312Q257.01813 392.525 257.01813 391.5875Q257.01813 390.68124 256.5025 390.16562Q256.0025 389.63437 255.17438 389.63437Q254.67438 389.63437 254.2525 389.86874Q253.84625 390.10312 253.61188 390.4625L252.6275 390.3375L253.45563 385.93124L257.73688 385.93124L257.73688 386.93124L254.29938 386.93124L253.84625 389.24374Q254.61188 388.69687 255.45563 388.69687Q256.58063 388.69687 257.34625 389.47812Q258.1275 390.25937 258.1275 391.49374Q258.1275 392.65 257.45563 393.50937Q256.6275 394.54062 255.20563 394.54062Q254.03375 394.54062 253.28375 393.88437Q252.54938 393.22812 252.44 392.15Z" fill-rule="nonzero"/><path fill="#000000" d="M305.18875 394.4L304.14188 394.4L304.14188 387.68124Q303.75125 388.04062 303.12625 388.41562Q302.51688 388.775 302.0325 388.94687L302.0325 387.93124Q302.9075 387.50937 303.56375 386.93124Q304.23563 386.3375 304.51688 385.775L305.18875 385.775L305.18875 394.4ZM308.81375 394.4L308.81375 393.19687L310.01688 393.19687L310.01688 394.4L308.81375 394.4ZM311.22 390.16562Q311.22 388.63437 311.5325 387.7125Q311.845 386.775 312.45438 386.275Q313.07938 385.775 314.01688 385.775Q314.70438 385.775 315.22 386.05624Q315.75125 386.3375 316.095 386.86874Q316.43875 387.38437 316.62625 388.13437Q316.81375 388.88437 316.81375 390.16562Q316.81375 391.68124 316.50125 392.60312Q316.20438 393.525 315.57938 394.04062Q314.97 394.54062 314.01688 394.54062Q312.7825 394.54062 312.06375 393.65Q311.22 392.5875 311.22 390.16562ZM312.29813 390.16562Q312.29813 392.275 312.79813 392.97812Q313.29813 393.68124 314.01688 393.68124Q314.75125 393.68124 315.23563 392.97812Q315.73563 392.275 315.73563 390.16562Q315.73563 388.04062 315.23563 387.35312Q314.75125 386.65 314.00125 386.65Q313.2825 386.65 312.845 387.25937Q312.29813 388.04062 312.29813 390.16562ZM318.22 390.16562Q318.22 388.63437 318.5325 387.7125Q318.845 386.775 319.45438 386.275Q320.07938 385.775 321.01688 385.775Q321.70438 385.775 322.22 386.05624Q322.75125 386.3375 323.095 386.86874Q323.43875 387.38437 323.62625 388.13437Q323.81375 388.88437 323.81375 390.16562Q323.81375 391.68124 323.50125 392.60312Q323.20438 393.525 322.57938 394.04062Q321.97 394.54062 321.01688 394.54062Q319.7825 394.54062 319.06375 393.65Q318.22 392.5875 318.22 390.16562ZM319.29813 390.16562Q319.29813 392.275 319.79813 392.97812Q320.29813 393.68124 321.01688 393.68124Q321.75125 393.68124 322.23563 392.97812Q322.73563 392.275 322.73563 390.16562Q322.73563 388.04062 322.23563 387.35312Q321.75125 386.65 321.00125 386.65Q320.2825 386.65 319.845 387.25937Q319.29813 388.04062 319.29813 390.16562Z" fill-rule="nonzero"/><path fill="#000000" d="M370.96875 394.4L369.92188 394.4L369.92188 387.68124Q369.53125 388.04062 368.90625 388.41562Q368.29688 388.775 367.8125 388.94687L367.8125 387.93124Q368.6875 387.50937 369.34375 386.93124Q370.01562 386.3375 370.29688 385.775L370.96875 385.775L370.96875 394.4ZM374.59375 394.4L374.59375 393.19687L375.79688 393.19687L375.79688 394.4L374.59375 394.4ZM382.54688 393.38437L382.54688 394.4L376.85938 394.4Q376.85938 394.025 376.98438 393.66562Q377.20312 393.0875 377.67188 392.525Q378.15625 391.9625 379.0625 391.22812Q380.46875 390.07187 380.95312 389.4Q381.45312 388.72812 381.45312 388.13437Q381.45312 387.50937 381.0 387.0875Q380.54688 386.65 379.82812 386.65Q379.0625 386.65 378.60938 387.10312Q378.15625 387.55624 378.14062 388.36874L377.0625 388.25937Q377.17188 387.04062 377.89062 386.41562Q378.625 385.775 379.85938 385.775Q381.09375 385.775 381.8125 386.4625Q382.53125 387.15 382.53125 388.16562Q382.53125 388.68124 382.3125 389.18124Q382.10938 389.66562 381.60938 390.22812Q381.125 390.775 380.0 391.72812Q379.04688 392.525 378.76562 392.82187Q378.5 393.10312 378.32812 393.38437L382.54688 393.38437ZM384.0 392.15L385.10938 392.05624Q385.23438 392.86874 385.67188 393.275Q386.125 393.68124 386.76562 393.68124Q387.51562 393.68124 388.04688 393.10312Q388.57812 392.525 388.57812 391.5875Q388.57812 390.68124 388.0625 390.16562Q387.5625 389.63437 386.73438 389.63437Q386.23438 389.63437 385.8125 389.86874Q385.40625 390.10312 385.17188 390.4625L384.1875 390.3375L385.01562 385.93124L389.29688 385.93124L389.29688 386.93124L385.85938 386.93124L385.40625 389.24374Q386.17188 388.69687 387.01562 388.69687Q388.14062 388.69687 388.90625 389.47812Q389.6875 390.25937 389.6875 391.49374Q389.6875 392.65 389.01562 393.50937Q388.1875 394.54062 386.76562 394.54062Q385.59375 394.54062 384.84375 393.88437Q384.10938 393.22812 384.0 392.15Z" fill-rule="nonzero"/><path fill="#000000" d="M436.74875 394.4L435.70187 394.4L435.70187 387.68124Q435.31125 388.04062 434.68625 388.41562Q434.07687 388.775 433.5925 388.94687L433.5925 387.93124Q434.4675 387.50937 435.12375 386.93124Q435.79562 386.3375 436.07687 385.775L436.74875 385.775L436.74875 394.4ZM440.37375 394.4L440.37375 393.19687L441.57687 393.19687L441.57687 394.4L440.37375 394.4ZM442.78 392.15L443.88937 392.05624Q444.01437 392.86874 444.45187 393.275Q444.905 393.68124 445.54562 393.68124Q446.29562 393.68124 446.82687 393.10312Q447.35812 392.525 447.35812 391.5875Q447.35812 390.68124 446.8425 390.16562Q446.3425 389.63437 445.51437 389.63437Q445.01437 389.63437 444.5925 389.86874Q444.18625 390.10312 443.95187 390.4625L442.9675 390.3375L443.79562 385.93124L448.07687 385.93124L448.07687 386.93124L444.63937 386.93124L444.18625 389.24374Q444.95187 388.69687 445.79562 388.69687Q446.92062 388.69687 447.68625 389.47812Q448.4675 390.25937 448.4675 391.49374Q448.4675 392.65 447.79562 393.50937Q446.9675 394.54062 445.54562 394.54062Q444.37375 394.54062 443.62375 393.88437Q442.88937 393.22812 442.78 392.15ZM449.78 390.16562Q449.78 388.63437 450.0925 387.7125Q450.405 386.775 451.01437 386.275Q451.63937 385.775 452.57687 385.775Q453.26437 385.775 453.78 386.05624Q454.31125 386.3375 454.655 386.86874Q454.99875 387.38437 455.18625 388.13437Q455.37375 388.88437 455.37375 390.16562Q455.37375 391.68124 455.06125 392.60312Q454.76437 393.525 454.13937 394.04062Q453.53 394.54062 452.57687 394.54062Q451.3425 394.54062 450.62375 393.65Q449.78 392.5875 449.78 390.16562ZM450.85812 390.16562Q450.85812 392.275 451.35812 392.97812Q451.85812 393.68124 452.57687 393.68124Q453.31125 393.68124 453.79562 392.97812Q454.29562 392.275 454.29562 390.16562Q454.29562 388.04062 453.79562 387.35312Q453.31125 386.65 452.56125 386.65Q451.8425 386.65 451.405 387.25937Q450.85812 388.04062 450.85812 390.16562Z" fill-rule="nonzero"/><path fill="#000000" d="M502.52875 394.4L501.48187 394.4L501.48187 387.68124Q501.09125 388.04062 500.46625 388.41562Q499.85687 388.775 499.3725 388.94687L499.3725 387.93124Q500.2475 387.50937 500.90375 386.93124Q501.57562 386.3375 501.85687 385.775L502.52875 385.775L502.52875 394.4ZM506.15375 394.4L506.15375 393.19687L507.35687 393.19687L507.35687 394.4L506.15375 394.4ZM508.6225 386.93124L508.6225 385.91562L514.185 385.91562L514.185 386.74374Q513.3725 387.61874 512.56 389.07187Q511.76312 390.50937 511.32562 392.04062Q510.9975 393.11874 510.91937 394.4L509.82562 394.4Q509.84125 393.38437 510.21625 391.94687Q510.60687 390.50937 511.31 389.18124Q512.02875 387.85312 512.84125 386.93124L508.6225 386.93124ZM515.56 392.15L516.6694 392.05624Q516.7944 392.86874 517.2319 393.275Q517.685 393.68124 518.3256 393.68124Q519.0756 393.68124 519.6069 393.10312Q520.1381 392.525 520.1381 391.5875Q520.1381 390.68124 519.6225 390.16562Q519.1225 389.63437 518.2944 389.63437Q517.7944 389.63437 517.3725 389.86874Q516.96625 390.10312 516.7319 390.4625L515.7475 390.3375L516.5756 385.93124L520.8569 385.93124L520.8569 386.93124L517.4194 386.93124L516.96625 389.24374Q517.7319 388.69687 518.5756 388.69687Q519.7006 388.69687 520.46625 389.47812Q521.2475 390.25937 521.2475 391.49374Q521.2475 392.65 520.5756 393.50937Q519.7475 394.54062 518.3256 394.54062Q517.15375 394.54062 516.40375 393.88437Q515.6694 393.22812 515.56 392.15Z" fill-rule="nonzero"/><path fill="#000000" d="M569.8869 393.38437L569.8869 394.4L564.1994 394.4Q564.1994 394.025 564.3244 393.66562Q564.54315 393.0875 565.0119 392.525Q565.4963 391.9625 566.4025 391.22812Q567.8088 390.07187 568.29315 389.4Q568.79315 388.72812 568.79315 388.13437Q568.79315 387.50937 568.34 387.0875Q567.8869 386.65 567.16815 386.65Q566.4025 386.65 565.9494 387.10312Q565.4963 387.55624 565.48065 388.36874L564.4025 388.25937Q564.5119 387.04062 565.23065 386.41562Q565.965 385.775 567.1994 385.775Q568.4338 385.775 569.1525 386.4625Q569.8713 387.15 569.8713 388.16562Q569.8713 388.68124 569.6525 389.18124Q569.4494 389.66562 568.9494 390.22812Q568.465 390.775 567.34 391.72812Q566.3869 392.525 566.10565 392.82187Q565.84 393.10312 565.66815 393.38437L569.8869 393.38437ZM571.9338 394.4L571.9338 393.19687L573.1369 393.19687L573.1369 394.4L571.9338 394.4ZM574.34 390.16562Q574.34 388.63437 574.6525 387.7125Q574.965 386.775 575.5744 386.275Q576.1994 385.775 577.1369 385.775Q577.8244 385.775 578.34 386.05624Q578.8713 386.3375 579.215 386.86874Q579.5588 387.38437 579.7463 388.13437Q579.9338 388.88437 579.9338 390.16562Q579.9338 391.68124 579.6213 392.60312Q579.3244 393.525 578.6994 394.04062Q578.09 394.54062 577.1369 394.54062Q575.9025 394.54062 575.1838 393.65Q574.34 392.5875 574.34 390.16562ZM575.41815 390.16562Q575.41815 392.275 575.91815 392.97812Q576.41815 393.68124 577.1369 393.68124Q577.8713 393.68124 578.35565 392.97812Q578.85565 392.275 578.85565 390.16562Q578.85565 388.04062 578.35565 387.35312Q577.8713 386.65 577.1213 386.65Q576.4025 386.65 575.965 387.25937Q575.41815 388.04062 575.41815 390.16562ZM581.34 390.16562Q581.34 388.63437 581.6525 387.7125Q581.965 386.775 582.5744 386.275Q583.1994 385.775 584.1369 385.775Q584.8244 385.775 585.34 386.05624Q585.8713 386.3375 586.215 386.86874Q586.5588 387.38437 586.7463 388.13437Q586.9338 388.88437 586.9338 390.16562Q586.9338 391.68124 586.6213 392.60312Q586.3244 393.525 585.6994 394.04062Q585.09 394.54062 584.1369 394.54062Q582.9025 394.54062 582.1838 393.65Q581.34 392.5875 581.34 390.16562ZM582.41815 390.16562Q582.41815 392.275 582.91815 392.97812Q583.41815 393.68124 584.1369 393.68124Q584.8713 393.68124 585.35565 392.97812Q585.85565 392.275 585.85565 390.16562Q585.85565 388.04062 585.35565 387.35312Q584.8713 386.65 584.1213 386.65Q583.4025 386.65 582.965 387.25937Q582.41815 388.04062 582.41815 390.16562Z" fill-rule="nonzero"/><path fill="#000000" d="M635.6669 393.38437L635.6669 394.4L629.9794 394.4Q629.9794 394.025 630.1044 393.66562Q630.3231 393.0875 630.7919 392.525Q631.27625 391.9625 632.1825 391.22812Q633.58875 390.07187 634.0731 389.4Q634.5731 388.72812 634.5731 388.13437Q634.5731 387.50937 634.12 387.0875Q633.6669 386.65 632.9481 386.65Q632.1825 386.65 631.7294 387.10312Q631.27625 387.55624 631.2606 388.36874L630.1825 388.25937Q630.2919 387.04062 631.0106 386.41562Q631.745 385.775 632.9794 385.775Q634.21375 385.775 634.9325 386.4625Q635.65125 387.15 635.65125 388.16562Q635.65125 388.68124 635.4325 389.18124Q635.2294 389.66562 634.7294 390.22812Q634.245 390.775 633.12 391.72812Q632.1669 392.525 631.8856 392.82187Q631.62 393.10312 631.4481 393.38437L635.6669 393.38437ZM637.71375 394.4L637.71375 393.19687L638.9169 393.19687L638.9169 394.4L637.71375 394.4ZM645.6669 393.38437L645.6669 394.4L639.9794 394.4Q639.9794 394.025 640.1044 393.66562Q640.3231 393.0875 640.7919 392.525Q641.27625 391.9625 642.1825 391.22812Q643.58875 390.07187 644.0731 389.4Q644.5731 388.72812 644.5731 388.13437Q644.5731 387.50937 644.12 387.0875Q643.6669 386.65 642.9481 386.65Q642.1825 386.65 641.7294 387.10312Q641.27625 387.55624 641.2606 388.36874L640.1825 388.25937Q640.2919 387.04062 641.0106 386.41562Q641.745 385.775 642.9794 385.775Q644.21375 385.775 644.9325 386.4625Q645.65125 387.15 645.65125 388.16562Q645.65125 388.68124 645.4325 389.18124Q645.2294 389.66562 644.7294 390.22812Q644.245 390.775 643.12 391.72812Q642.1669 392.525 641.8856 392.82187Q641.62 393.10312 641.4481 393.38437L645.6669 393.38437ZM647.12 392.15L648.2294 392.05624Q648.3544 392.86874 648.7919 393.275Q649.245 393.68124 649.8856 393.68124Q650.6356 393.68124 651.1669 393.10312Q651.6981 392.525 651.6981 391.5875Q651.6981 390.68124 651.1825 390.16562Q650.6825 389.63437 649.8544 389.63437Q649.3544 389.63437 648.9325 389.86874Q648.52625 390.10312 648.2919 390.4625L647.3075 390.3375L648.1356 385.93124L652.4169 385.93124L652.4169 386.93124L648.9794 386.93124L648.52625 389.24374Q649.2919 388.69687 650.1356 388.69687Q651.2606 388.69687 652.02625 389.47812Q652.8075 390.25937 652.8075 391.49374Q652.8075 392.65 652.1356 393.50937Q651.3075 394.54062 649.8856 394.54062Q648.71375 394.54062 647.96375 393.88437Q647.2294 393.22812 647.12 392.15Z" fill-rule="nonzero"/><path fill="#000000" d="M701.4469 393.38437L701.4469 394.4L695.7594 394.4Q695.7594 394.025 695.8844 393.66562Q696.10315 393.0875 696.5719 392.525Q697.0563 391.9625 697.9625 391.22812Q699.3688 390.07187 699.85315 389.4Q700.35315 388.72812 700.35315 388.13437Q700.35315 387.50937 699.9 387.0875Q699.4469 386.65 698.72815 386.65Q697.9625 386.65 697.5094 387.10312Q697.0563 387.55624 697.04065 388.36874L695.9625 388.25937Q696.0719 387.04062 696.79065 386.41562Q697.525 385.775 698.7594 385.775Q699.9938 385.775 700.7125 386.4625Q701.4313 387.15 701.4313 388.16562Q701.4313 388.68124 701.2125 389.18124Q701.0094 389.66562 700.5094 390.22812Q700.025 390.775 698.9 391.72812Q697.9469 392.525 697.66565 392.82187Q697.4 393.10312 697.22815 393.38437L701.4469 393.38437ZM703.4938 394.4L703.4938 393.19687L704.6969 393.19687L704.6969 394.4L703.4938 394.4ZM705.9 392.15L707.0094 392.05624Q707.1344 392.86874 707.5719 393.275Q708.025 393.68124 708.66565 393.68124Q709.41565 393.68124 709.9469 393.10312Q710.47815 392.525 710.47815 391.5875Q710.47815 390.68124 709.9625 390.16562Q709.4625 389.63437 708.6344 389.63437Q708.1344 389.63437 707.7125 389.86874Q707.3063 390.10312 707.0719 390.4625L706.0875 390.3375L706.91565 385.93124L711.1969 385.93124L711.1969 386.93124L707.7594 386.93124L707.3063 389.24374Q708.0719 388.69687 708.91565 388.69687Q710.04065 388.69687 710.8063 389.47812Q711.5875 390.25937 711.5875 391.49374Q711.5875 392.65 710.91565 393.50937Q710.0875 394.54062 708.66565 394.54062Q707.4938 394.54062 706.7438 393.88437Q706.0094 393.22812 705.9 392.15ZM712.9 390.16562Q712.9 388.63437 713.2125 387.7125Q713.525 386.775 714.1344 386.275Q714.7594 385.775 715.6969 385.775Q716.3844 385.775 716.9 386.05624Q717.4313 386.3375 717.775 386.86874Q718.1188 387.38437 718.3063 388.13437Q718.4938 388.88437 718.4938 390.16562Q718.4938 391.68124 718.1813 392.60312Q717.8844 393.525 717.2594 394.04062Q716.65 394.54062 715.6969 394.54062Q714.4625 394.54062 713.7438 393.65Q712.9 392.5875 712.9 390.16562ZM713.97815 390.16562Q713.97815 392.275 714.47815 392.97812Q714.97815 393.68124 715.6969 393.68124Q716.4313 393.68124 716.91565 392.97812Q717.41565 392.275 717.41565 390.16562Q717.41565 388.04062 716.91565 387.35312Q716.4313 386.65 715.6813 386.65Q714.9625 386.65 714.525 387.25937Q713.97815 388.04062 713.97815 390.16562Z" fill-rule="nonzero"/><path fill="#757575" d="M24.209375 41.6L24.209375 27.287498L26.1 27.287498L26.1 33.1625L33.5375 33.1625L33.5375 27.287498L35.428123 27.287498L35.428123 41.6L33.5375 41.6L33.5375 34.85L26.1 34.85L26.1 41.6L24.209375 41.6ZM36.928123 29.303123L36.928123 27.287498L38.69375 27.287498L38.69375 29.303123L36.928123 29.303123ZM36.928123 41.6L36.928123 31.224998L38.69375 31.224998L38.69375 41.6L36.928123 41.6ZM40.209373 38.50625L41.959373 38.225Q42.1 39.271873 42.771873 39.834373Q43.44375 40.38125 44.646873 40.38125Q45.85 40.38125 46.428123 39.896873Q47.021873 39.396873 47.021873 38.740623Q47.021873 38.146873 46.50625 37.803123Q46.146873 37.56875 44.709373 37.209373Q42.771873 36.709373 42.021873 36.365623Q41.2875 36.00625 40.896873 35.38125Q40.50625 34.740623 40.50625 33.975Q40.50625 33.2875 40.81875 32.69375Q41.146873 32.1 41.69375 31.709373Q42.1 31.412498 42.803123 31.209373Q43.521873 30.990623 44.334373 30.990623Q45.553123 30.990623 46.475 31.349998Q47.396873 31.693748 47.834373 32.303123Q48.271873 32.896873 48.44375 33.896873L46.725 34.13125Q46.6 33.334373 46.0375 32.896873Q45.475 32.44375 44.459373 32.44375Q43.240623 32.44375 42.725 32.85Q42.209373 33.240623 42.209373 33.771873Q42.209373 34.115623 42.428123 34.396873Q42.63125 34.678123 43.1 34.865623Q43.365623 34.959373 44.646873 35.303123Q46.521873 35.803123 47.25625 36.13125Q47.990623 36.44375 48.4125 37.053123Q48.834373 37.646873 48.834373 38.553123Q48.834373 39.428123 48.31875 40.209373Q47.803123 40.990623 46.834373 41.4125Q45.865623 41.834373 44.646873 41.834373Q42.63125 41.834373 41.56875 40.990623Q40.50625 40.146873 40.209373 38.50625ZM54.75625 40.021873L55.00625 41.584373Q54.271873 41.740623 53.678123 41.740623Q52.725 41.740623 52.19375 41.44375Q51.678123 41.13125 51.459373 40.646873Q51.240623 40.146873 51.240623 38.56875L51.240623 32.6L49.959373 32.6L49.959373 31.224998L51.240623 31.224998L51.240623 28.662498L52.990623 27.599998L52.990623 31.224998L54.75625 31.224998L54.75625 32.6L52.990623 32.6L52.990623 38.6625Q52.990623 39.4125 53.084373 39.63125Q53.178123 39.834373 53.38125 39.975Q53.6 40.1 53.990623 40.1Q54.271873 40.1 54.75625 40.021873ZM56.271873 36.4125Q56.271873 33.5375 57.865623 32.146873Q59.209373 30.990623 61.13125 30.990623Q63.271873 30.990623 64.61562 32.396873Q65.975 33.803123 65.975 36.271873Q65.975 38.271873 65.38125 39.428123Q64.7875 40.56875 63.63125 41.209373Q62.490623 41.834373 61.13125 41.834373Q58.94375 41.834373 57.6 40.44375Q56.271873 39.0375 56.271873 36.4125ZM58.06875 36.4125Q58.06875 38.4125 58.928123 39.396873Q59.803123 40.38125 61.13125 40.38125Q62.44375 40.38125 63.303123 39.396873Q64.17812 38.396873 64.17812 36.35Q64.17812 34.428123 63.303123 33.44375Q62.428123 32.44375 61.13125 32.44375Q59.803123 32.44375 58.928123 33.44375Q58.06875 34.428123 58.06875 36.4125ZM67.6 42.459373L69.30312 42.709373Q69.4125 43.50625 69.89687 43.865623Q70.55312 44.35 71.69375 44.35Q72.9125 44.35 73.56875 43.865623Q74.24062 43.38125 74.475 42.50625Q74.61562 41.959373 74.6 40.240623Q73.44375 41.6 71.725 41.6Q69.58437 41.6 68.4125 40.053123Q67.24062 38.50625 67.24062 36.35Q67.24062 34.865623 67.77187 33.615623Q68.31875 32.365623 69.33437 31.678123Q70.36562 30.990623 71.74062 30.990623Q73.56875 30.990623 74.77187 32.475L74.77187 31.224998L76.38125 31.224998L76.38125 40.19375Q76.38125 42.615623 75.88125 43.615623Q75.39687 44.63125 74.31875 45.209373Q73.25625 45.803123 71.69375 45.803123Q69.85 45.803123 68.69375 44.975Q67.55312 44.146873 67.6 42.459373ZM69.05312 36.225Q69.05312 38.271873 69.86562 39.209373Q70.67812 40.146873 71.89687 40.146873Q73.1 40.146873 73.9125 39.209373Q74.74062 38.271873 74.74062 36.2875Q74.74062 34.38125 73.89687 33.4125Q73.05312 32.44375 71.86562 32.44375Q70.69375 32.44375 69.86562 33.396873Q69.05312 34.35 69.05312 36.225ZM78.89687 41.6L78.89687 31.224998L80.475 31.224998L80.475 32.803123Q81.08437 31.693748 81.6 31.349998Q82.11562 30.990623 82.725 30.990623Q83.61562 30.990623 84.5375 31.553123L83.92812 33.19375Q83.2875 32.803123 82.64687 32.803123Q82.06875 32.803123 81.6 33.1625Q81.14687 33.50625 80.94375 34.115623Q80.6625 35.053123 80.6625 36.1625L80.6625 41.6L78.89687 41.6ZM92.69375 40.31875Q91.70937 41.146873 90.80312 41.490623Q89.89687 41.834373 88.86562 41.834373Q87.1625 41.834373 86.24062 41.00625Q85.31875 40.1625 85.31875 38.865623Q85.31875 38.1 85.6625 37.475Q86.02187 36.85 86.58437 36.475Q87.14687 36.084373 87.85 35.88125Q88.36562 35.75625 89.4125 35.615623Q91.5375 35.365623 92.5375 35.021873Q92.55312 34.6625 92.55312 34.553123Q92.55312 33.490623 92.05312 33.0375Q91.38125 32.44375 90.05312 32.44375Q88.80312 32.44375 88.20937 32.88125Q87.63125 33.31875 87.35 34.428123L85.63125 34.19375Q85.86562 33.084373 86.39687 32.4125Q86.92812 31.724998 87.94375 31.365623Q88.95937 30.990623 90.30312 30.990623Q91.63125 30.990623 92.45937 31.303123Q93.2875 31.615623 93.67812 32.1Q94.06875 32.56875 94.225 33.2875Q94.31875 33.740623 94.31875 34.9125L94.31875 37.25625Q94.31875 39.709373 94.42812 40.365623Q94.5375 41.00625 94.88125 41.6L93.0375 41.6Q92.77187 41.053123 92.69375 40.31875ZM92.5375 36.396873Q91.58437 36.7875 89.6625 37.053123Q88.58437 37.209373 88.13125 37.4125Q87.69375 37.6 87.44375 37.975Q87.19375 38.35 87.19375 38.81875Q87.19375 39.521873 87.725 39.990623Q88.25625 40.459373 89.2875 40.459373Q90.30312 40.459373 91.08437 40.021873Q91.88125 39.56875 92.25625 38.803123Q92.5375 38.19375 92.5375 37.0375L92.5375 36.396873ZM96.9125 41.6L96.9125 31.224998L98.49062 31.224998L98.49062 32.678123Q98.975 31.928123 99.7875 31.459373Q100.6 30.990623 101.63125 30.990623Q102.7875 30.990623 103.52187 31.474998Q104.25625 31.943748 104.56875 32.803123Q105.80312 30.990623 107.77187 30.990623Q109.31875 30.990623 110.14687 31.849998Q110.975 32.709373 110.975 34.475L110.975 41.6L109.225 41.6L109.225 35.06875Q109.225 34.00625 109.05312 33.553123Q108.88125 33.084373 108.42812 32.803123Q107.99062 32.521873 107.38125 32.521873Q106.2875 32.521873 105.55312 33.25625Q104.83437 33.975 104.83437 35.56875L104.83437 41.6L103.08437 41.6L103.08437 34.865623Q103.08437 33.69375 102.64687 33.115623Q102.225 32.521873 101.24062 32.521873Q100.50625 32.521873 99.86562 32.9125Q99.24062 33.303123 98.95937 34.053123Q98.67812 34.803123 98.67812 36.225L98.67812 41.6L96.9125 41.6ZM118.27187 36.4125Q118.27187 33.5375 119.86562 32.146873Q121.20937 30.990623 123.13125 30.990623Q125.27187 30.990623 126.61562 32.396873Q127.975 33.803123 127.975 36.271873Q127.975 38.271873 127.38125 39.428123Q126.7875 40.56875 125.63125 41.209373Q124.49062 41.834373 123.13125 41.834373Q120.94375 41.834373 119.6 40.44375Q118.27187 39.0375 118.27187 36.4125ZM120.06875 36.4125Q120.06875 38.4125 120.92812 39.396873Q121.80312 40.38125 123.13125 40.38125Q124.44375 40.38125 125.30312 39.396873Q126.17812 38.396873 126.17812 36.35Q126.17812 34.428123 125.30312 33.44375Q124.42812 32.44375 123.13125 32.44375Q121.80312 32.44375 120.92812 33.44375Q120.06875 34.428123 120.06875 36.4125ZM130.33438 41.6L130.33438 32.6L128.7875 32.6L128.7875 31.224998L130.33438 31.224998L130.33438 30.131248Q130.33438 29.084373 130.52188 28.568748Q130.77188 27.881248 131.4125 27.459373Q132.05313 27.037498 133.20938 27.037498Q133.95938 27.037498 134.85 27.209373L134.58438 28.740623Q134.0375 28.646873 133.55313 28.646873Q132.75626 28.646873 132.4125 28.990623Q132.08438 29.334373 132.08438 30.271873L132.08438 31.224998L134.11563 31.224998L134.11563 32.6L132.08438 32.6L132.08438 41.6L130.33438 41.6ZM145.75626 40.021873L146.00626 41.584373Q145.27188 41.740623 144.67813 41.740623Q143.725 41.740623 143.19376 41.44375Q142.67813 41.13125 142.45938 40.646873Q142.24063 40.146873 142.24063 38.56875L142.24063 32.6L140.95938 32.6L140.95938 31.224998L142.24063 31.224998L142.24063 28.662498L143.99063 27.599998L143.99063 31.224998L145.75626 31.224998L145.75626 32.6L143.99063 32.6L143.99063 38.6625Q143.99063 39.4125 144.08438 39.63125Q144.17813 39.834373 144.38126 39.975Q144.6 40.1 144.99063 40.1Q145.27188 40.1 145.75626 40.021873ZM147.92813 29.303123L147.92813 27.287498L149.69376 27.287498L149.69376 29.303123L147.92813 29.303123ZM147.92813 41.6L147.92813 31.224998L149.69376 31.224998L149.69376 41.6L147.92813 41.6ZM151.9125 41.6L151.9125 31.224998L153.49063 31.224998L153.49063 32.678123Q153.975 31.928123 154.7875 31.459373Q155.6 30.990623 156.63126 30.990623Q157.7875 30.990623 158.52188 31.474998Q159.25626 31.943748 159.56876 32.803123Q160.80313 30.990623 162.77188 30.990623Q164.31876 30.990623 165.14688 31.849998Q165.975 32.709373 165.975 34.475L165.975 41.6L164.225 41.6L164.225 35.06875Q164.225 34.00625 164.05313 33.553123Q163.88126 33.084373 163.42813 32.803123Q162.99063 32.521873 162.38126 32.521873Q161.2875 32.521873 160.55313 33.25625Q159.83438 33.975 159.83438 35.56875L159.83438 41.6L158.08438 41.6L158.08438 34.865623Q158.08438 33.69375 157.64688 33.115623Q157.225 32.521873 156.24063 32.521873Q155.50626 32.521873 154.86563 32.9125Q154.24063 33.303123 153.95938 34.053123Q153.67813 34.803123 153.67813 36.225L153.67813 41.6L151.9125 41.6ZM175.02188 38.25625L176.83438 38.490623Q176.4125 40.06875 175.24063 40.959373Q174.08438 41.834373 172.27188 41.834373Q170.00626 41.834373 168.6625 40.44375Q167.33438 39.0375 167.33438 36.50625Q167.33438 33.88125 168.67813 32.44375Q170.02188 30.990623 172.17813 30.990623Q174.25626 30.990623 175.56876 32.4125Q176.89688 33.81875 176.89688 36.396873Q176.89688 36.553123 176.88126 36.865623L169.14688 36.865623Q169.24063 38.56875 170.11563 39.475Q170.99063 40.38125 172.2875 40.38125Q173.25626 40.38125 173.92813 39.88125Q174.61563 39.365623 175.02188 38.25625ZM169.24063 35.4125L175.0375 35.4125Q174.92813 34.115623 174.38126 33.459373Q173.5375 32.44375 172.19376 32.44375Q170.99063 32.44375 170.1625 33.25625Q169.33438 34.053123 169.24063 35.4125ZM188.75626 40.021873L189.00626 41.584373Q188.27188 41.740623 187.67813 41.740623Q186.725 41.740623 186.19376 41.44375Q185.67813 41.13125 185.45938 40.646873Q185.24063 40.146873 185.24063 38.56875L185.24063 32.6L183.95938 32.6L183.95938 31.224998L185.24063 31.224998L185.24063 28.662498L186.99063 27.599998L186.99063 31.224998L188.75626 31.224998L188.75626 32.6L186.99063 32.6L186.99063 38.6625Q186.99063 39.4125 187.08438 39.63125Q187.17813 39.834373 187.38126 39.975Q187.6 40.1 187.99063 40.1Q188.27188 40.1 188.75626 40.021873ZM190.27188 36.4125Q190.27188 33.5375 191.86563 32.146873Q193.20938 30.990623 195.13126 30.990623Q197.27188 30.990623 198.61563 32.396873Q199.975 33.803123 199.975 36.271873Q199.975 38.271873 199.38126 39.428123Q198.7875 40.56875 197.63126 41.209373Q196.49063 41.834373 195.13126 41.834373Q192.94376 41.834373 191.6 40.44375Q190.27188 39.0375 190.27188 36.4125ZM192.06876 36.4125Q192.06876 38.4125 192.92813 39.396873Q193.80313 40.38125 195.13126 40.38125Q196.44376 40.38125 197.30313 39.396873Q198.17813 38.396873 198.17813 36.35Q198.17813 34.428123 197.30313 33.44375Q196.42813 32.44375 195.13126 32.44375Q193.80313 32.44375 192.92813 33.44375Q192.06876 34.428123 192.06876 36.4125ZM214.64688 41.6L214.64688 40.2875Q213.6625 41.834373 211.74063 41.834373Q210.50626 41.834373 209.45938 41.146873Q208.42813 40.459373 207.85 39.240623Q207.2875 38.021873 207.2875 36.428123Q207.2875 34.865623 207.80313 33.6Q208.31876 32.334373 209.35 31.662498Q210.39688 30.990623 211.6625 30.990623Q212.6 30.990623 213.33438 31.396873Q214.06876 31.787498 214.5375 32.4125L214.5375 27.287498L216.27188 27.287498L216.27188 41.6L214.64688 41.6ZM209.08438 36.428123Q209.08438 38.4125 209.92813 39.396873Q210.77188 40.38125 211.9125 40.38125Q213.06876 40.38125 213.86563 39.44375Q214.67813 38.50625 214.67813 36.56875Q214.67813 34.44375 213.85 33.44375Q213.0375 32.44375 211.83438 32.44375Q210.6625 32.44375 209.86563 33.4125Q209.08438 34.365623 209.08438 36.428123ZM226.02188 38.25625L227.83438 38.490623Q227.4125 40.06875 226.24063 40.959373Q225.08438 41.834373 223.27188 41.834373Q221.00626 41.834373 219.6625 40.44375Q218.33438 39.0375 218.33438 36.50625Q218.33438 33.88125 219.67813 32.44375Q221.02188 30.990623 223.17813 30.990623Q225.25626 30.990623 226.56876 32.4125Q227.89688 33.81875 227.89688 36.396873Q227.89688 36.553123 227.88126 36.865623L220.14688 36.865623Q220.24063 38.56875 221.11563 39.475Q221.99063 40.38125 223.2875 40.38125Q224.25626 40.38125 224.92813 39.88125Q225.61563 39.365623 226.02188 38.25625ZM220.24063 35.4125L226.0375 35.4125Q225.92813 34.115623 225.38126 33.459373Q224.5375 32.44375 223.19376 32.44375Q221.99063 32.44375 221.1625 33.25625Q220.33438 34.053123 220.24063 35.4125ZM236.69376 37.803123L238.4125 38.021873Q238.13126 39.81875 236.95938 40.834373Q235.80313 41.834373 234.1 41.834373Q231.975 41.834373 230.67813 40.44375Q229.38126 39.053123 229.38126 36.459373Q229.38126 34.771873 229.92813 33.521873Q230.49063 32.25625 231.63126 31.631248Q232.77188 30.990623 234.11563 30.990623Q235.80313 30.990623 236.86563 31.849998Q237.94376 32.709373 238.25626 34.271873L236.5375 34.5375Q236.30313 33.490623 235.67813 32.975Q235.05313 32.44375 234.17813 32.44375Q232.85 32.44375 232.02188 33.396873Q231.19376 34.35 231.19376 36.396873Q231.19376 38.490623 231.99063 39.44375Q232.7875 40.38125 234.08438 40.38125Q235.11563 40.38125 235.80313 39.75625Q236.50626 39.115623 236.69376 37.803123ZM239.27188 36.4125Q239.27188 33.5375 240.86563 32.146873Q242.20938 30.990623 244.13126 30.990623Q246.27188 30.990623 247.61563 32.396873Q248.975 33.803123 248.975 36.271873Q248.975 38.271873 248.38126 39.428123Q247.7875 40.56875 246.63126 41.209373Q245.49063 41.834373 244.13126 41.834373Q241.94376 41.834373 240.6 40.44375Q239.27188 39.0375 239.27188 36.4125ZM241.06876 36.4125Q241.06876 38.4125 241.92813 39.396873Q242.80313 40.38125 244.13126 40.38125Q245.44376 40.38125 246.30313 39.396873Q247.17813 38.396873 247.17813 36.35Q247.17813 34.428123 246.30313 33.44375Q245.42813 32.44375 244.13126 32.44375Q242.80313 32.44375 241.92813 33.44375Q241.06876 34.428123 241.06876 36.4125ZM257.64688 41.6L257.64688 40.2875Q256.6625 41.834373 254.74063 41.834373Q253.50626 41.834373 252.45938 41.146873Q251.42813 40.459373 250.85 39.240623Q250.2875 38.021873 250.2875 36.428123Q250.2875 34.865623 250.80313 33.6Q251.31876 32.334373 252.35 31.662498Q253.39688 30.990623 254.6625 30.990623Q255.6 30.990623 256.33438 31.396873Q257.06876 31.787498 257.5375 32.4125L257.5375 27.287498L259.27188 27.287498L259.27188 41.6L257.64688 41.6ZM252.08438 36.428123Q252.08438 38.4125 252.92813 39.396873Q253.77188 40.38125 254.9125 40.38125Q256.06876 40.38125 256.86563 39.44375Q257.67813 38.50625 257.67813 36.56875Q257.67813 34.44375 256.85 33.44375Q256.0375 32.44375 254.83438 32.44375Q253.6625 32.44375 252.86563 33.4125Q252.08438 34.365623 252.08438 36.428123ZM269.02188 38.25625L270.83438 38.490623Q270.4125 40.06875 269.24063 40.959373Q268.08438 41.834373 266.27188 41.834373Q264.00626 41.834373 262.6625 40.44375Q261.33438 39.0375 261.33438 36.50625Q261.33438 33.88125 262.67813 32.44375Q264.02188 30.990623 266.17813 30.990623Q268.25626 30.990623 269.56876 32.4125Q270.89688 33.81875 270.89688 36.396873Q270.89688 36.553123 270.88126 36.865623L263.14688 36.865623Q263.24063 38.56875 264.11563 39.475Q264.99063 40.38125 266.2875 40.38125Q267.25626 40.38125 267.92813 39.88125Q268.61563 39.365623 269.02188 38.25625ZM263.24063 35.4125L269.0375 35.4125Q268.92813 34.115623 268.38126 33.459373Q267.5375 32.44375 266.19376 32.44375Q264.99063 32.44375 264.1625 33.25625Q263.33438 34.053123 263.24063 35.4125ZM285.69376 40.31875Q284.70938 41.146873 283.80313 41.490623Q282.89688 41.834373 281.86563 41.834373Q280.1625 41.834373 279.24063 41.00625Q278.31876 40.1625 278.31876 38.865623Q278.31876 38.1 278.6625 37.475Q279.02188 36.85 279.58438 36.475Q280.14688 36.084373 280.85 35.88125Q281.36563 35.75625 282.4125 35.615623Q284.5375 35.365623 285.5375 35.021873Q285.55313 34.6625 285.55313 34.553123Q285.55313 33.490623 285.05313 33.0375Q284.38126 32.44375 283.05313 32.44375Q281.80313 32.44375 281.20938 32.88125Q280.63126 33.31875 280.35 34.428123L278.63126 34.19375Q278.86563 33.084373 279.39688 32.4125Q279.92813 31.724998 280.94376 31.365623Q281.95938 30.990623 283.30313 30.990623Q284.63126 30.990623 285.45938 31.303123Q286.2875 31.615623 286.67813 32.1Q287.06876 32.56875 287.225 33.2875Q287.31876 33.740623 287.31876 34.9125L287.31876 37.25625Q287.31876 39.709373 287.42813 40.365623Q287.5375 41.00625 287.88126 41.6L286.0375 41.6Q285.77188 41.053123 285.69376 40.31875ZM285.5375 36.396873Q284.58438 36.7875 282.6625 37.053123Q281.58438 37.209373 281.13126 37.4125Q280.69376 37.6 280.44376 37.975Q280.19376 38.35 280.19376 38.81875Q280.19376 39.521873 280.725 39.990623Q281.25626 40.459373 282.2875 40.459373Q283.30313 40.459373 284.08438 40.021873Q284.88126 39.56875 285.25626 38.803123Q285.5375 38.19375 285.5375 37.0375L285.5375 36.396873ZM296.33438 41.6L296.33438 32.6L294.7875 32.6L294.7875 31.224998L296.33438 31.224998L296.33438 30.131248Q296.33438 29.084373 296.52188 28.568748Q296.77188 27.881248 297.4125 27.459373Q298.05313 27.037498 299.20938 27.037498Q299.95938 27.037498 300.85 27.209373L300.58438 28.740623Q300.0375 28.646873 299.55313 28.646873Q298.75626 28.646873 298.4125 28.990623Q298.08438 29.334373 298.08438 30.271873L298.08438 31.224998L300.11563 31.224998L300.11563 32.6L298.08438 32.6L298.08438 41.6L296.33438 41.6ZM301.89688 41.6L301.89688 31.224998L303.475 31.224998L303.475 32.803123Q304.08438 31.693748 304.6 31.349998Q305.11563 30.990623 305.725 30.990623Q306.61563 30.990623 307.5375 31.553123L306.92813 33.19375Q306.2875 32.803123 305.64688 32.803123Q305.06876 32.803123 304.6 33.1625Q304.14688 33.50625 303.94376 34.115623Q303.6625 35.053123 303.6625 36.1625L303.6625 41.6L301.89688 41.6ZM315.69376 40.31875Q314.70938 41.146873 313.80313 41.490623Q312.89688 41.834373 311.86563 41.834373Q310.1625 41.834373 309.24063 41.00625Q308.31876 40.1625 308.31876 38.865623Q308.31876 38.1 308.6625 37.475Q309.02188 36.85 309.58438 36.475Q310.14688 36.084373 310.85 35.88125Q311.36563 35.75625 312.4125 35.615623Q314.5375 35.365623 315.5375 35.021873Q315.55313 34.6625 315.55313 34.553123Q315.55313 33.490623 315.05313 33.0375Q314.38126 32.44375 313.05313 32.44375Q311.80313 32.44375 311.20938 32.88125Q310.63126 33.31875 310.35 34.428123L308.63126 34.19375Q308.86563 33.084373 309.39688 32.4125Q309.92813 31.724998 310.94376 31.365623Q311.95938 30.990623 313.30313 30.990623Q314.63126 30.990623 315.45938 31.303123Q316.2875 31.615623 316.67813 32.1Q317.06876 32.56875 317.225 33.2875Q317.31876 33.740623 317.31876 34.9125L317.31876 37.25625Q317.31876 39.709373 317.42813 40.365623Q317.5375 41.00625 317.88126 41.6L316.0375 41.6Q315.77188 41.053123 315.69376 40.31875ZM315.5375 36.396873Q314.58438 36.7875 312.6625 37.053123Q311.58438 37.209373 311.13126 37.4125Q310.69376 37.6 310.44376 37.975Q310.19376 38.35 310.19376 38.81875Q310.19376 39.521873 310.725 39.990623Q311.25626 40.459373 312.2875 40.459373Q313.30313 40.459373 314.08438 40.021873Q314.88126 39.56875 315.25626 38.803123Q315.5375 38.19375 315.5375 37.0375L315.5375 36.396873ZM319.9125 41.6L319.9125 31.224998L321.49063 31.224998L321.49063 32.678123Q321.975 31.928123 322.7875 31.459373Q323.6 30.990623 324.63126 30.990623Q325.7875 30.990623 326.52188 31.474998Q327.25626 31.943748 327.56876 32.803123Q328.80313 30.990623 330.77188 30.990623Q332.31876 30.990623 333.14688 31.849998Q333.975 32.709373 333.975 34.475L333.975 41.6L332.225 41.6L332.225 35.06875Q332.225 34.00625 332.05313 33.553123Q331.88126 33.084373 331.42813 32.803123Q330.99063 32.521873 330.38126 32.521873Q329.2875 32.521873 328.55313 33.25625Q327.83438 33.975 327.83438 35.56875L327.83438 41.6L326.08438 41.6L326.08438 34.865623Q326.08438 33.69375 325.64688 33.115623Q325.225 32.521873 324.24063 32.521873Q323.50626 32.521873 322.86563 32.9125Q322.24063 33.303123 321.95938 34.053123Q321.67813 34.803123 321.67813 36.225L321.67813 41.6L319.9125 41.6ZM343.02188 38.25625L344.83438 38.490623Q344.4125 40.06875 343.24063 40.959373Q342.08438 41.834373 340.27188 41.834373Q338.00626 41.834373 336.6625 40.44375Q335.33438 39.0375 335.33438 36.50625Q335.33438 33.88125 336.67813 32.44375Q338.02188 30.990623 340.17813 30.990623Q342.25626 30.990623 343.56876 32.4125Q344.89688 33.81875 344.89688 36.396873Q344.89688 36.553123 344.88126 36.865623L337.14688 36.865623Q337.24063 38.56875 338.11563 39.475Q338.99063 40.38125 340.2875 40.38125Q341.25626 40.38125 341.92813 39.88125Q342.61563 39.365623 343.02188 38.25625ZM337.24063 35.4125L343.0375 35.4125Q342.92813 34.115623 342.38126 33.459373Q341.5375 32.44375 340.19376 32.44375Q338.99063 32.44375 338.1625 33.25625Q337.33438 34.053123 337.24063 35.4125Z" fill-rule="nonzero"/></svg>